# xmcd
#
# Track frame offsets: 
#        150
#        15997
#        33422
#        44728
#        53332
#        64087
#        74486
#        84201
#        106629
#        119285
#        140073
#        160080
#
# Disc length: 2315 seconds
#
# Revision: 0
# Processed by: cddbd v1.5.1PL0 Copyright (c) Steve Scherf et al.
# Submitted via: ExactAudioCopy v0.95a5
#
DISCID=9509090c
DTITLE=Old Paint - Freakwater
DYEAR=1998
DGENRE=Country
TTITLE0=Gravity
TTITLE1=Smoking Daddy
TTITLE2=Gone To Stay
TTITLE3=Little Black Train
TTITLE4=Waitress Song
TTITLE5=My One Desire
TTITLE6=White Rose
TTITLE7=Out Of This World
TTITLE8=Kentucky House
TTITLE9=Hero/Heroine
TTITLE10=Ugly Man
TTITLE11=Burying Geraldine
EXTD=
EXTT0=
EXTT1=
EXTT2=
EXTT3=
EXTT4=
EXTT5=
EXTT6=
EXTT7=
EXTT8=
EXTT9=
EXTT10=
EXTT11=
PLAYORDER=
